<?xml version="1.0" encoding="UTF-8"?>
<svg id="Ebene_2" data-name="Ebene 2" xmlns="http://www.w3.org/2000/svg" viewBox="0 0 253.31 100.25">
  <defs>
    <style>
      .cls-1 {
        fill: none;
      }

      .cls-1, .cls-2 {
        stroke: #1d1d1b;
        stroke-miterlimit: 10;
        stroke-width: .25px;
      }

      .cls-2 {
        fill: #009fe3;
        opacity: .25;
      }

      .cls-3 {
        fill: #1d1d1b;
        stroke-width: 0px;
      }
    </style>
  </defs>
  <g id="Ebene_1-2" data-name="Ebene 1">
    <g>
      <g>
        <path class="cls-3" d="m111.33,69.16v-36.86h5.82l.74,7.79v29.07h-6.56Zm12.32,0v-28.86c0-2.09-.87-3.13-2.6-3.13-2.11,0-3.16,1.67-3.16,5.01l-1.92-5.29h2.11c.25-3.52,2.13-5.29,5.64-5.29,1.71,0,3.06.66,4.04,1.98s1.47,3.33,1.47,6.02v29.56h-5.57Zm11.33,0v-28.17c0-2.55-.85-3.83-2.54-3.83-2.15,0-3.22,1.67-3.22,5.01l-2.23-5.29h2.54c.1-1.44.61-2.68,1.53-3.72.92-1.04,2.25-1.56,3.98-1.56,2.27,0,3.92.68,4.95,2.05,1.03,1.37,1.55,3.58,1.55,6.64v28.86h-6.56Z"/>
        <path class="cls-3" d="m149.98,69.16v-6.47h13.13v6.47h-13.13Zm1.86-30.39v-6.47h17.22v6.47h-17.22Zm13.72-12.31c-1.26,0-2.34-.5-3.24-1.51s-1.35-2.22-1.35-3.63.45-2.65,1.35-3.65c.9-1,1.98-1.5,3.24-1.5s2.36.5,3.25,1.5c.89,1,1.33,2.21,1.33,3.65s-.44,2.63-1.33,3.63c-.89,1.01-1.97,1.51-3.25,1.51Zm-3.07,42.7v-34.77h6.56v34.77h-6.56Zm5.95,0v-6.47h10.71v6.47h-10.71Z"/>
        <path class="cls-3" d="m187.14,69.16v-6.47h13.13v6.47h-13.13Zm1.86-30.39v-6.47h17.22v6.47h-17.22Zm13.72-12.31c-1.26,0-2.34-.5-3.24-1.51s-1.35-2.22-1.35-3.63.45-2.65,1.35-3.65c.9-1,1.98-1.5,3.24-1.5s2.36.5,3.25,1.5c.89,1,1.33,2.21,1.33,3.65s-.44,2.63-1.33,3.63c-.89,1.01-1.97,1.51-3.25,1.51Zm-3.07,42.7v-34.77h6.56v34.77h-6.56Zm5.95,0v-6.47h10.71v6.47h-10.71Z"/>
        <path class="cls-3" d="m241.08,69.86c-5.59,0-9.91-1.65-12.96-4.96-3.05-3.3-4.57-8.05-4.57-14.24s1.44-10.71,4.32-14.05,6.99-5.01,12.34-5.01c3.2,0,5.94.67,8.22,2,2.28,1.33,3.91,3.22,4.88,5.65l-5.05,4.28c-.93-1.69-2.12-3-3.56-3.93s-3.02-1.39-4.74-1.39c-3.1,0-5.5,1.05-7.22,3.15-1.71,2.1-2.57,5.08-2.57,8.95,0,4.2,1.01,7.4,3.02,9.61,2.01,2.21,4.89,3.32,8.62,3.32,1.53,0,3.06-.08,4.58-.24,1.53-.16,3.01-.38,4.46-.66l.74,6.47c-1.69.42-3.44.7-5.25.83-1.81.14-3.57.21-5.28.21Z"/>
      </g>
      <g>
        <ellipse class="cls-2" cx="49.86" cy="40.33" rx="24.73" ry="45.81" transform="translate(-14.09 35.58) rotate(-34.72)"/>
        <ellipse class="cls-2" cx="49.86" cy="40.33" rx="45.81" ry="24.73" transform="translate(-11.69 58.34) rotate(-55.28)"/>
        <ellipse class="cls-2" cx="33.2" cy="59.92" rx="24.73" ry="45.81" transform="translate(-28.22 29.58) rotate(-34.72)"/>
        <ellipse class="cls-2" cx="67.05" cy="59.92" rx="45.81" ry="24.73" transform="translate(-20.39 80.9) rotate(-55.28)"/>
        <ellipse class="cls-1" cx="49.86" cy="40.33" rx="24.73" ry="45.81" transform="translate(-14.09 35.58) rotate(-34.72)"/>
        <ellipse class="cls-1" cx="49.86" cy="40.33" rx="45.81" ry="24.73" transform="translate(-11.69 58.34) rotate(-55.28)"/>
        <ellipse class="cls-1" cx="33.2" cy="59.92" rx="24.73" ry="45.81" transform="translate(-28.22 29.58) rotate(-34.72)"/>
        <ellipse class="cls-1" cx="67.05" cy="59.92" rx="45.81" ry="24.73" transform="translate(-20.39 80.9) rotate(-55.28)"/>
      </g>
    </g>
  </g>
</svg>